<?xml version="1.0" encoding="iso-8859-1"?>
<!-- Generator: Adobe Illustrator 19.0.0, SVG Export Plug-In . SVG Version: 6.00 Build 0)  -->
<svg version="1.1" id="Capa_1" xmlns="http://www.w3.org/2000/svg" xmlns:xlink="http://www.w3.org/1999/xlink" x="0px" y="0px"
	 viewBox="0 0 407.51 407.51" style="enable-background:new 0 0 407.51 407.51;" xml:space="preserve">
<g>
	<g>
		<path fill="#727272" d="M397.061,83.592c5.771,0,10.449-4.678,10.449-10.449V10.449C407.51,4.678,402.832,0,397.061,0h-62.694
			c-5.771,0-10.449,4.678-10.449,10.449v20.898H83.592V10.449C83.592,4.678,78.914,0,73.143,0H10.449C4.678,0,0,4.678,0,10.449
			v62.694c0,5.771,4.678,10.449,10.449,10.449h20.898v240.327H10.449C4.678,323.918,0,328.597,0,334.367v62.694
			c0,5.771,4.678,10.449,10.449,10.449h62.694c5.771,0,10.449-4.678,10.449-10.449v-20.898h240.327v20.898
			c0,5.771,4.678,10.449,10.449,10.449h62.694c5.771,0,10.449-4.678,10.449-10.449v-62.694c0-5.771-4.678-10.449-10.449-10.449
			h-20.898V83.592H397.061z M355.265,323.918h-20.898c-5.771,0-10.449,4.678-10.449,10.449v20.898H83.592v-20.898
			c0-5.771-4.678-10.449-10.449-10.449H52.245V83.592h20.898c5.771,0,10.449-4.678,10.449-10.449V52.245h240.327v20.898
			c0,5.771,4.678,10.449,10.449,10.449h20.898V323.918z"/>
	</g>
</g>
<g>
</g>
<g>
</g>
<g>
</g>
<g>
</g>
<g>
</g>
<g>
</g>
<g>
</g>
<g>
</g>
<g>
</g>
<g>
</g>
<g>
</g>
<g>
</g>
<g>
</g>
<g>
</g>
<g>
</g>
</svg>
